<?xml version="1.0" standalone="no"?>
<!DOCTYPE svg PUBLIC "-//W3C//DTD SVG 20010904//EN"
 "http://www.w3.org/TR/2001/REC-SVG-20010904/DTD/svg10.dtd">
<svg version="1.0" xmlns="http://www.w3.org/2000/svg"
 width="1280.000000pt" height="149.000000pt" viewBox="0 0 1280.000000 149.000000"
 preserveAspectRatio="xMidYMid meet">
<metadata>
Created by potrace 1.16, written by Peter Selinger 2001-2019
</metadata>
<g transform="translate(0.000000,149.000000) scale(0.100000,-0.100000)"
fill="#000000" stroke="none">
<path d="M3670 760 l0 -671 118 3 117 3 3 409 2 408 43 -38 c45 -40 159 -143
352 -319 380 -346 535 -485 539 -485 4 0 6 301 6 670 l0 670 -120 0 -120 0 -2
-409 -3 -409 -91 81 c-50 45 -131 119 -180 163 -370 337 -655 594 -659 594 -3
0 -5 -302 -5 -670z"/>
<path d="M720 1154 c0 -220 -2 -255 -14 -251 -92 35 -341 49 -469 27 -69 -13
-156 -36 -173 -48 -7 -5 1 -37 25 -100 31 -79 39 -92 56 -89 11 2 57 12 103
22 115 24 288 17 395 -15 l77 -23 0 -294 0 -293 115 0 115 0 0 256 0 257 43
-7 c187 -27 353 -14 493 39 l64 24 0 -284 0 -285 115 0 115 0 0 660 0 660
-115 0 -115 0 0 -259 0 -258 -68 -31 c-118 -53 -178 -66 -292 -66 -58 0 -135
6 -172 13 l-68 13 0 294 0 294 -115 0 -115 0 0 -256z"/>
<path d="M2110 1003 c0 -449 3 -479 62 -602 21 -46 53 -88 102 -136 117 -116
250 -168 431 -168 249 1 449 123 542 333 47 105 53 171 53 591 l0 389 -119 0
-119 0 -5 -392 c-3 -317 -7 -403 -20 -446 -30 -104 -89 -177 -180 -224 -64
-33 -202 -37 -279 -8 -110 41 -189 139 -217 268 -7 34 -11 186 -11 427 l0 375
-120 0 -120 0 0 -407z"/>
<path d="M5140 1300 l0 -110 215 0 215 0 2 -547 3 -548 123 -3 122 -3 0 551 0
550 215 0 215 0 0 110 0 110 -555 0 -555 0 0 -110z"/>
<path d="M6540 750 l0 -660 473 2 472 3 3 107 3 108 -353 2 -353 3 0 170 0
170 218 3 217 2 0 105 0 105 -217 2 -218 3 -3 158 -3 157 341 0 340 0 0 110 0
110 -460 0 -460 0 0 -660z"/>
<path d="M7780 750 l0 -660 120 0 120 0 2 233 3 232 150 0 149 0 66 -140 c36
-77 84 -182 108 -233 l43 -92 135 0 134 0 -14 33 c-8 17 -64 135 -126 261 -61
125 -110 229 -108 230 2 2 23 17 48 33 65 44 128 116 158 181 24 50 27 70 27
157 0 93 -2 105 -33 167 -57 116 -170 200 -318 238 -68 18 -111 20 -371 20
l-293 0 0 -660z m618 425 c188 -56 216 -268 49 -361 -51 -29 -54 -29 -239 -32
l-188 -4 0 206 0 206 163 0 c118 0 178 -4 215 -15z"/>
<path d="M9100 751 l0 -661 125 0 125 0 0 229 0 229 188 4 c171 4 194 7 267
32 140 48 232 124 283 234 24 50 27 69 27 162 0 99 -2 110 -32 171 -54 108
-154 186 -303 235 -47 15 -102 18 -367 22 l-313 4 0 -661z m611 423 c175 -49
226 -228 97 -338 -60 -51 -128 -66 -306 -66 l-152 0 0 210 0 210 152 0 c109 0
168 -5 209 -16z"/>
<path d="M10420 750 l0 -660 475 0 475 0 0 110 0 110 -355 0 -355 0 0 170 0
170 220 0 220 0 0 110 0 110 -220 0 -220 0 0 160 0 160 340 0 340 0 0 110 0
110 -460 0 -460 0 0 -660z"/>
<path d="M11640 1300 l0 -110 215 0 215 0 0 -550 0 -550 125 0 125 0 0 550 0
550 215 0 215 0 0 110 0 110 -555 0 -555 0 0 -110z"/>
</g>
</svg>
